<svg version="1.1" id="Layer_1" xmlns="http://www.w3.org/2000/svg" xmlns:xlink="http://www.w3.org/1999/xlink" x="0px" y="0px"
	 width="100%" viewBox="0 0 1024 1024" enable-background="new 0 0 1024 1024" xml:space="preserve">
<clipPath id="squircle">
  <rect width="1024" height="1024" rx="224"/>
</clipPath>
<g clip-path="url(#squircle)">
<path fill="#020101" opacity="1.000000" stroke="none" 
	d="
M678.000000,1025.000000 
	C452.000000,1025.000000 226.500000,1025.000000 1.000000,1025.000000 
	C1.000000,683.666687 1.000000,342.333344 1.000000,1.000000 
	C342.333344,1.000000 683.666687,1.000000 1025.000000,1.000000 
	C1025.000000,342.333344 1025.000000,683.666687 1025.000000,1025.000000 
	C909.500000,1025.000000 794.000000,1025.000000 678.000000,1025.000000 
M499.543793,542.955872 
	C513.680115,558.662476 528.394531,573.894958 541.782715,590.215210 
	C554.025269,605.138916 562.943726,622.200439 565.453979,641.735474 
	C568.866150,668.289612 560.717896,689.997070 537.444031,704.845825 
	C521.779236,714.839966 504.304596,718.495850 486.088287,718.790222 
	C464.530670,719.138489 443.704590,714.658386 423.597931,707.169617 
	C377.338379,689.940247 338.447052,661.616272 303.969788,626.799561 
	C298.316101,621.090210 292.870483,615.174805 287.088135,609.101868 
	C285.254883,635.510742 283.505524,661.425049 281.582733,687.326538 
	C281.386230,689.973511 281.716370,691.524536 284.237549,692.896057 
	C366.095856,737.429199 452.848969,756.591553 545.752563,742.823975 
	C573.592529,738.698303 600.277466,730.449158 624.240234,715.084045 
	C645.106323,701.704529 661.742432,684.605103 669.040710,660.217285 
	C678.710144,627.905884 671.837524,598.081909 654.414612,570.085693 
	C641.113953,548.713318 623.752014,530.713074 606.355347,512.781372 
	C598.391724,504.572876 589.950134,496.828247 581.572083,488.725006 
	C575.969543,502.947052 565.454346,508.998291 553.344849,505.033417 
	C543.828979,501.917755 540.006287,494.196198 538.130554,485.080963 
	C536.017578,474.812744 533.822815,464.561371 531.418945,453.140076 
	C527.351929,464.067047 522.212463,472.478424 510.350922,473.004181 
	C497.674500,473.566101 491.616516,464.885651 486.555267,455.070404 
	C481.828949,460.002197 477.192200,462.001984 470.520050,462.004700 
	C451.294434,462.012512 432.068817,462.007416 412.875732,462.007416 
	C441.409821,488.651825 470.223389,515.557190 499.543793,542.955872 
M613.671143,224.926529 
	C605.448242,223.640427 597.260071,222.042664 588.996582,221.120331 
	C545.367493,216.250641 502.216370,218.678864 459.665680,229.940414 
	C434.746277,236.535660 410.745544,245.290756 389.522614,260.304291 
	C352.919830,286.197906 338.870026,321.747681 346.109161,365.561523 
	C350.012909,389.188568 363.554626,408.062866 379.156921,425.488678 
	C380.439758,426.921448 382.987976,427.921112 384.956116,427.934174 
	C409.580719,428.097382 434.206757,428.041077 458.184509,428.041077 
	C466.876587,417.537384 471.408264,404.144562 486.280762,400.681519 
	C481.684418,395.566162 476.928284,390.907593 472.915314,385.678711 
	C463.715607,373.691559 453.989960,361.970276 446.126617,349.131256 
	C436.990662,334.214264 432.769379,317.544037 436.446136,299.834503 
	C441.497833,275.502563 458.525757,262.089417 480.378754,254.208359 
	C508.479950,244.073929 537.262756,244.456146 565.967651,251.716919 
	C601.842407,260.791229 630.404907,281.159027 653.587280,309.571472 
	C654.334290,310.487000 655.195374,311.309540 656.708862,312.931702 
	C656.708862,286.278839 656.708862,260.714783 656.708862,234.369446 
	C642.768433,231.296677 628.646118,228.183823 613.671143,224.926529 
M689.994263,399.319458 
	C687.383972,388.148987 684.874268,376.953705 682.125488,365.817413 
	C680.495422,359.213409 676.463806,355.804047 671.271423,356.075104 
	C665.479431,356.377411 661.522217,360.102753 660.143494,366.362518 
	C653.918823,394.624115 647.722107,422.892120 641.380920,451.127625 
	C639.085022,461.350250 636.413940,471.488617 633.914124,481.665436 
	C631.755676,475.206604 630.587097,468.850830 629.472290,462.485626 
	C623.588440,428.890533 617.719482,395.292816 611.842041,361.696625 
	C610.236328,352.518188 608.858032,343.291046 606.923096,334.182343 
	C605.638916,328.137390 601.163696,324.549896 596.280762,324.614319 
	C590.914917,324.685089 586.215515,328.665344 585.076538,334.262177 
	C580.697144,355.781525 576.386719,377.314911 571.995483,398.831848 
	C568.344727,416.720490 564.616821,434.593353 560.923157,452.473236 
	C555.007385,425.935059 550.032654,399.468719 545.099365,372.994659 
	C543.984924,367.014008 540.203918,363.091644 535.169067,362.916687 
	C529.371399,362.715210 525.430908,365.873260 523.883972,372.098389 
	C521.839172,380.327332 519.925110,388.588959 517.851196,396.810394 
	C514.737549,409.153625 511.533844,421.474121 508.132843,434.722076 
	C505.570587,428.895691 503.262146,424.179596 501.413391,419.289642 
	C499.633179,414.580841 496.465027,411.675140 491.568573,411.282623 
	C486.484985,410.875122 482.031891,412.562866 479.119995,417.126709 
	C475.274780,423.153442 471.590485,429.290924 467.514740,435.156860 
	C466.497711,436.620575 464.286316,438.001617 462.552948,438.094238 
	C453.907562,438.556488 445.238037,438.555664 436.577881,438.755463 
	C373.955505,440.200043 311.333069,441.640564 248.711777,443.130707 
	C243.938766,443.244293 239.174622,443.729797 234.406342,444.042450 
	C260.396912,446.142883 286.297974,448.103485 312.229370,448.667694 
	C364.702820,449.809357 417.192230,450.256683 469.677429,450.720001 
	C472.552368,450.745392 476.135956,448.971893 478.189240,446.865540 
	C482.177765,442.773987 485.312714,437.850403 489.059723,432.932281 
	C492.417877,440.358124 495.599518,447.627594 498.987640,454.799500 
	C501.076141,459.220490 504.635742,461.939667 509.676422,461.587402 
	C514.797180,461.229584 518.375000,458.475555 519.783447,453.359375 
	C521.239990,448.068665 522.656677,442.766388 524.030029,437.453491 
	C527.062317,425.723022 530.056396,413.982697 533.066101,402.246368 
	C536.153015,412.804047 538.070862,423.253510 539.977173,433.705078 
	C543.111267,450.888672 546.194519,468.081696 549.388245,485.254211 
	C550.737366,492.508423 556.274536,496.538177 562.586487,494.839355 
	C568.829590,493.159119 570.719482,488.070496 571.814392,482.417786 
	C575.863953,461.511261 579.887573,440.599243 584.059631,419.717041 
	C587.636902,401.812195 591.403870,383.945282 595.086975,366.061584 
	C596.441040,368.953491 596.953613,371.837830 597.471924,374.721130 
	C603.006042,405.506073 608.567444,436.286133 614.064697,467.077637 
	C616.785278,482.316193 619.309875,497.589966 622.083130,512.818665 
	C623.195679,518.927917 626.960144,522.234009 632.460815,522.578979 
	C637.027100,522.865417 642.008667,519.297607 643.802734,514.268311 
	C644.468384,512.402222 644.806274,510.414032 645.230103,508.467682 
	C648.520935,493.356293 651.688354,478.217102 655.101257,463.133392 
	C660.378540,439.809753 665.820251,416.523285 671.411499,392.270081 
	C671.913757,393.957123 672.171326,394.686066 672.347656,395.434235 
	C677.269531,416.316620 682.236206,437.188690 687.065613,458.092499 
	C688.502563,464.312347 691.935913,468.214905 697.250793,468.939545 
	C702.238708,469.619690 707.164124,466.833862 709.869507,461.741852 
	C710.412292,460.720245 710.772888,459.602570 711.229553,458.534363 
	C715.859802,447.703033 720.492676,436.872833 725.360657,425.490601 
	C728.365173,432.033386 731.112671,438.008850 733.853210,443.987518 
	C735.804321,448.244110 739.053833,450.205841 743.783142,449.940643 
	C756.078491,449.251221 768.381592,448.699677 780.677551,448.020081 
	C801.201111,446.885834 821.721436,445.694611 843.418274,444.460571 
	C840.855469,444.083282 839.424561,443.770721 837.979187,443.674927 
	C809.397705,441.780212 780.819763,439.820770 752.224731,438.155365 
	C748.840698,437.958282 747.237793,436.942474 746.048828,433.918884 
	C743.252747,426.808655 739.983032,419.883789 737.222900,412.760681 
	C735.173462,407.471375 732.475891,403.154022 726.206299,402.796906 
	C720.366028,402.464294 717.140930,405.063629 714.048706,411.926666 
	C709.663574,421.659485 705.186890,431.351044 700.141602,442.389923 
	C696.571106,427.305359 693.356506,413.724518 689.994263,399.319458 
z"/>
<path fill="#FDFDFD" opacity="1.000000" stroke="none" 
	d="
M499.290344,542.709229 
	C470.223389,515.557190 441.409821,488.651825 412.875732,462.007416 
	C432.068817,462.007416 451.294434,462.012512 470.520050,462.004700 
	C477.192200,462.001984 481.828949,460.002197 486.555267,455.070404 
	C491.616516,464.885651 497.674500,473.566101 510.350922,473.004181 
	C522.212463,472.478424 527.351929,464.067047 531.418945,453.140076 
	C533.822815,464.561371 536.017578,474.812744 538.130554,485.080963 
	C540.006287,494.196198 543.828979,501.917755 553.344849,505.033417 
	C565.454346,508.998291 575.969543,502.947052 581.572083,488.725006 
	C589.950134,496.828247 598.391724,504.572876 606.355347,512.781372 
	C623.752014,530.713074 641.113953,548.713318 654.414612,570.085693 
	C671.837524,598.081909 678.710144,627.905884 669.040710,660.217285 
	C661.742432,684.605103 645.106323,701.704529 624.240234,715.084045 
	C600.277466,730.449158 573.592529,738.698303 545.752563,742.823975 
	C452.848969,756.591553 366.095856,737.429199 284.237549,692.896057 
	C281.716370,691.524536 281.386230,689.973511 281.582733,687.326538 
	C283.505524,661.425049 285.254883,635.510742 287.088135,609.101868 
	C292.870483,615.174805 298.316101,621.090210 303.969788,626.799561 
	C338.447052,661.616272 377.338379,689.940247 423.597931,707.169617 
	C443.704590,714.658386 464.530670,719.138489 486.088287,718.790222 
	C504.304596,718.495850 521.779236,714.839966 537.444031,704.845825 
	C560.717896,689.997070 568.866150,668.289612 565.453979,641.735474 
	C562.943726,622.200439 554.025269,605.138916 541.782715,590.215210 
	C528.394531,573.894958 513.680115,558.662476 499.290344,542.709229 
z"/>
<path fill="#FCFCFD" opacity="1.000000" stroke="none" 
	d="
M614.097534,224.998749 
	C628.646118,228.183823 642.768433,231.296677 656.708862,234.369446 
	C656.708862,260.714783 656.708862,286.278839 656.708862,312.931702 
	C655.195374,311.309540 654.334290,310.487000 653.587280,309.571472 
	C630.404907,281.159027 601.842407,260.791229 565.967651,251.716919 
	C537.262756,244.456146 508.479950,244.073929 480.378754,254.208359 
	C458.525757,262.089417 441.497833,275.502563 436.446136,299.834503 
	C432.769379,317.544037 436.990662,334.214264 446.126617,349.131256 
	C453.989960,361.970276 463.715607,373.691559 472.915314,385.678711 
	C476.928284,390.907593 481.684418,395.566162 486.280762,400.681519 
	C471.408264,404.144562 466.876587,417.537384 458.184509,428.041077 
	C434.206757,428.041077 409.580719,428.097382 384.956116,427.934174 
	C382.987976,427.921112 380.439758,426.921448 379.156921,425.488678 
	C363.554626,408.062866 350.012909,389.188568 346.109161,365.561523 
	C338.870026,321.747681 352.919830,286.197906 389.522614,260.304291 
	C410.745544,245.290756 434.746277,236.535660 459.665680,229.940414 
	C502.216370,218.678864 545.367493,216.250641 588.996582,221.120331 
	C597.260071,222.042664 605.448242,223.640427 614.097534,224.998749 
z"/>
<path fill="#F9F9F9" opacity="1.000000" stroke="none" 
	d="
M690.068115,399.731567 
	C693.356506,413.724518 696.571106,427.305359 700.141602,442.389923 
	C705.186890,431.351044 709.663574,421.659485 714.048706,411.926666 
	C717.140930,405.063629 720.366028,402.464294 726.206299,402.796906 
	C732.475891,403.154022 735.173462,407.471375 737.222900,412.760681 
	C739.983032,419.883789 743.252747,426.808655 746.048828,433.918884 
	C747.237793,436.942474 748.840698,437.958282 752.224731,438.155365 
	C780.819763,439.820770 809.397705,441.780212 837.979187,443.674927 
	C839.424561,443.770721 840.855469,444.083282 843.418274,444.460571 
	C821.721436,445.694611 801.201111,446.885834 780.677551,448.020081 
	C768.381592,448.699677 756.078491,449.251221 743.783142,449.940643 
	C739.053833,450.205841 735.804321,448.244110 733.853210,443.987518 
	C731.112671,438.008850 728.365173,432.033386 725.360657,425.490601 
	C720.492676,436.872833 715.859802,447.703033 711.229553,458.534363 
	C710.772888,459.602570 710.412292,460.720245 709.869507,461.741852 
	C707.164124,466.833862 702.238708,469.619690 697.250793,468.939545 
	C691.935913,468.214905 688.502563,464.312347 687.065613,458.092499 
	C682.236206,437.188690 677.269531,416.316620 672.347656,395.434235 
	C672.171326,394.686066 671.913757,393.957123 671.411499,392.270081 
	C665.820251,416.523285 660.378540,439.809753 655.101257,463.133392 
	C651.688354,478.217102 648.520935,493.356293 645.230103,508.467682 
	C644.806274,510.414032 644.468384,512.402222 643.802734,514.268311 
	C642.008667,519.297607 637.027100,522.865417 632.460815,522.578979 
	C626.960144,522.234009 623.195679,518.927917 622.083130,512.818665 
	C619.309875,497.589966 616.785278,482.316193 614.064697,467.077637 
	C608.567444,436.286133 603.006042,405.506073 597.471924,374.721130 
	C596.953613,371.837830 596.441040,368.953491 595.086975,366.061584 
	C591.403870,383.945282 587.636902,401.812195 584.059631,419.717041 
	C579.887573,440.599243 575.863953,461.511261 571.814392,482.417786 
	C570.719482,488.070496 568.829590,493.159119 562.586487,494.839355 
	C556.274536,496.538177 550.737366,492.508423 549.388245,485.254211 
	C546.194519,468.081696 543.111267,450.888672 539.977173,433.705078 
	C538.070862,423.253510 536.153015,412.804047 533.066101,402.246368 
	C530.056396,413.982697 527.062317,425.723022 524.030029,437.453491 
	C522.656677,442.766388 521.239990,448.068665 519.783447,453.359375 
	C518.375000,458.475555 514.797180,461.229584 509.676422,461.587402 
	C504.635742,461.939667 501.076141,459.220490 498.987640,454.799500 
	C495.599518,447.627594 492.417877,440.358124 489.059723,432.932281 
	C485.312714,437.850403 482.177765,442.773987 478.189240,446.865540 
	C476.135956,448.971893 472.552368,450.745392 469.677429,450.720001 
	C417.192230,450.256683 364.702820,449.809357 312.229370,448.667694 
	C286.297974,448.103485 260.396912,446.142883 234.406342,444.042450 
	C239.174622,443.729797 243.938766,443.244293 248.711777,443.130707 
	C311.333069,441.640564 373.955505,440.200043 436.577881,438.755463 
	C445.238037,438.555664 453.907562,438.556488 462.552948,438.094238 
	C464.286316,438.001617 466.497711,436.620575 467.514740,435.156860 
	C471.590485,429.290924 475.274780,423.153442 479.119995,417.126709 
	C482.031891,412.562866 486.484985,410.875122 491.568573,411.282623 
	C496.465027,411.675140 499.633179,414.580841 501.413391,419.289642 
	C503.262146,424.179596 505.570587,428.895691 508.132843,434.722076 
	C511.533844,421.474121 514.737549,409.153625 517.851196,396.810394 
	C519.925110,388.588959 521.839172,380.327332 523.883972,372.098389 
	C525.430908,365.873260 529.371399,362.715210 535.169067,362.916687 
	C540.203918,363.091644 543.984924,367.014008 545.099365,372.994659 
	C550.032654,399.468719 555.007385,425.935059 560.923157,452.473236 
	C564.616821,434.593353 568.344727,416.720490 571.995483,398.831848 
	C576.386719,377.314911 580.697144,355.781525 585.076538,334.262177 
	C586.215515,328.665344 590.914917,324.685089 596.280762,324.614319 
	C601.163696,324.549896 605.638916,328.137390 606.923096,334.182343 
	C608.858032,343.291046 610.236328,352.518188 611.842041,361.696625 
	C617.719482,395.292816 623.588440,428.890533 629.472290,462.485626 
	C630.587097,468.850830 631.755676,475.206604 633.914124,481.665436 
	C636.413940,471.488617 639.085022,461.350250 641.380920,451.127625 
	C647.722107,422.892120 653.918823,394.624115 660.143494,366.362518 
	C661.522217,360.102753 665.479431,356.377411 671.271423,356.075104 
	C676.463806,355.804047 680.495422,359.213409 682.125488,365.817413 
	C684.874268,376.953705 687.383972,388.148987 690.068115,399.731567 
z"/>
  </g>
</svg>